<svg version="1.1" id="Layer_1" xmlns="http://www.w3.org/2000/svg" xmlns:xlink="http://www.w3.org/1999/xlink" x="0px" y="0px"
	 width="100%" viewBox="0 0 3375 4219" enable-background="new 0 0 3375 4219" xml:space="preserve">
<path fill="#000000" opacity="1.000000" stroke="none" 
	d="
M2064.000000,4222.000000 
	C1376.000000,4222.000000 689.000000,4222.000000 2.000000,4222.000000 
	C2.000000,2815.333252 2.000000,1408.666626 2.000000,2.000000 
	C1127.333374,2.000000 2252.666748,2.000000 3378.000000,2.000000 
	C3378.000000,1408.666626 3378.000000,2815.333252 3378.000000,4222.000000 
	C2940.333252,4222.000000 2502.666748,4222.000000 2064.000000,4222.000000 
M1525.520996,3417.577881 
	C1525.601440,3401.261963 1525.716431,3384.946045 1525.722778,3368.630127 
	C1525.723633,3366.343750 1526.009155,3363.343750 1524.753052,3361.906494 
	C1521.184082,3357.823730 1522.109253,3353.179443 1522.000000,3348.643799 
	C1521.856934,3342.704834 1521.964844,3336.759766 1521.964844,3331.105713 
	C1505.645874,3323.986816 1490.198120,3328.709229 1474.824951,3330.519531 
	C1472.485352,3346.950439 1473.448486,3512.132080 1476.091797,3519.991455 
	C1483.452271,3519.991455 1491.079590,3520.004150 1498.706787,3519.987793 
	C1506.230469,3519.971680 1513.754150,3519.926025 1521.068359,3519.894287 
	C1521.798218,3514.143555 1521.163940,3509.190918 1523.177124,3505.818359 
	C1525.651245,3501.673828 1525.298584,3497.687988 1525.815063,3493.493896 
	C1526.691284,3486.377441 1522.860474,3480.083496 1522.390137,3473.477539 
	C1521.495117,3460.909912 1522.404419,3448.213623 1523.932983,3435.217773 
	C1524.334106,3430.020508 1524.735229,3424.823486 1525.520996,3417.577881 
M1691.571045,3431.731201 
	C1691.505005,3419.414551 1691.662598,3407.091797 1691.323120,3394.782715 
	C1690.747803,3373.926758 1689.866943,3353.079590 1689.057373,3332.230713 
	C1689.035767,3331.674316 1688.357056,3331.143555 1687.979126,3330.604736 
	C1675.981201,3328.798584 1647.808594,3329.264404 1640.595703,3331.417236 
	C1640.595703,3393.839355 1640.595703,3456.290283 1640.595703,3518.603760 
	C1652.404297,3520.986572 1776.099854,3520.492188 1783.394531,3518.122559 
	C1783.394531,3506.302246 1783.394531,3494.441162 1783.394531,3481.260254 
	C1752.067505,3481.260254 1721.277832,3481.260254 1689.562500,3481.260254 
	C1689.807861,3475.671875 1689.925049,3471.438477 1690.198120,3467.215332 
	C1690.492798,3462.654053 1690.933105,3458.102051 1691.641602,3452.349121 
	C1691.503052,3446.168945 1691.364502,3439.988525 1691.571045,3431.731201 
M1983.715820,2878.179199 
	C1970.319580,2878.272217 1956.923218,2878.365234 1941.705200,2878.220947 
	C1930.461914,2878.804932 1929.750732,2879.434570 1929.744141,2890.287598 
	C1929.707642,2950.597656 1929.466553,3010.909424 1929.930542,3071.215820 
	C1930.018433,3082.643799 1931.988525,3094.295654 1934.787598,3105.416748 
	C1941.501953,3132.093994 1958.502563,3151.990723 1979.415894,3168.880127 
	C1982.447510,3171.328857 1985.829834,3173.580078 1989.403931,3175.077393 
	C2001.800659,3180.270020 2013.545776,3187.284912 2027.021973,3189.569824 
	C2039.657593,3191.712158 2052.302734,3194.301270 2065.047363,3195.163086 
	C2079.308105,3196.127197 2093.698242,3195.728760 2108.007812,3195.228516 
	C2116.866699,3194.919434 2125.744629,3193.698730 2134.501953,3192.221436 
	C2157.306152,3188.374512 2178.089600,3179.489990 2196.616943,3165.648193 
	C2201.603271,3161.922852 2206.255859,3157.584961 2210.400635,3152.938721 
	C2216.299805,3146.326416 2222.865723,3139.834229 2226.885498,3132.113525 
	C2236.730713,3113.204590 2242.281006,3092.843994 2242.295166,3071.311523 
	C2242.334717,3011.667969 2242.264160,2952.024414 2242.237793,2892.380859 
	C2242.236328,2888.793457 2242.237549,2885.206055 2242.237549,2880.631348 
	C2236.159180,2879.702881 2231.027344,2878.145508 2225.938721,2878.276611 
	C2205.070801,2878.815918 2184.215576,2879.863281 2163.357666,2880.766113 
	C2162.770508,2880.791504 2162.203613,2881.292236 2160.974609,2881.887451 
	C2160.797363,2884.088379 2160.411133,2886.659668 2160.409424,2889.230957 
	C2160.375000,2944.875977 2160.456787,3000.521240 2160.288574,3056.165771 
	C2160.267822,3063.039307 2159.819824,3070.134521 2158.089600,3076.739014 
	C2152.820557,3096.853027 2140.169189,3112.154541 2121.229980,3119.515137 
	C2093.660645,3130.229492 2065.524658,3130.530518 2039.755737,3113.268311 
	C2032.442749,3108.369141 2025.196045,3102.095703 2020.562866,3094.778564 
	C2014.067871,3084.520752 2011.589355,3072.359131 2011.601929,3059.914307 
	C2011.658813,3003.269775 2011.626465,2946.625000 2011.585693,2889.980469 
	C2011.583618,2887.110352 2011.204346,2884.240723 2010.976807,2881.035400 
	C2001.948608,2880.131104 1993.697632,2879.304688 1983.715820,2878.179199 
M2226.946045,2533.821533 
	C2232.462158,2526.549561 2238.032227,2519.318115 2243.481689,2511.996582 
	C2251.318604,2501.466797 2258.926514,2490.897949 2265.116699,2479.148193 
	C2272.998535,2464.187988 2280.730713,2449.326172 2285.260986,2432.951904 
	C2291.603760,2410.026855 2296.427246,2386.884521 2296.119385,2362.934326 
	C2296.046387,2357.268555 2296.025635,2351.602051 2296.024658,2345.935791 
	C2295.994141,2189.611816 2295.969482,2033.287598 2295.943848,1876.963501 
	C2295.943359,1873.062988 2295.943848,1869.162476 2295.943848,1864.816040 
	C2288.548096,1864.365601 2282.392822,1863.990845 2276.171387,1863.611938 
	C2276.171387,1859.292114 2276.171387,1855.782104 2276.171387,1852.617432 
	C2281.535400,1850.923462 2286.088379,1848.882080 2290.845703,1848.124756 
	C2297.988281,1846.987305 2305.366455,1847.271118 2312.478760,1846.013428 
	C2324.432617,1843.899902 2336.462646,1841.755127 2348.088135,1838.350586 
	C2367.473389,1832.673096 2385.524170,1823.584351 2402.497803,1812.794189 
	C2414.934326,1804.888306 2426.435547,1795.487793 2438.173340,1786.517212 
	C2443.431885,1782.498291 2448.755615,1778.359131 2453.164795,1773.475464 
	C2463.921143,1761.561646 2474.663086,1749.571289 2484.496094,1736.901855 
	C2501.137451,1715.460938 2513.674316,1691.656738 2522.279785,1665.873413 
	C2531.752930,1637.490723 2537.144287,1608.437866 2536.229004,1578.381592 
	C2535.815918,1564.817261 2535.654297,1551.291382 2534.617432,1537.699463 
	C2533.070557,1517.429932 2528.721436,1498.043213 2522.302734,1479.015991 
	C2516.994385,1463.279907 2508.637207,1449.026978 2498.685059,1435.744751 
	C2495.336426,1431.275146 2491.792969,1426.950195 2488.302246,1422.588013 
	C2475.107910,1406.100098 2462.187500,1389.381104 2448.596924,1373.226196 
	C2439.020996,1361.843384 2428.727051,1351.039429 2418.389648,1340.328491 
	C2406.841553,1328.363037 2395.054443,1316.614868 2383.048340,1305.109253 
	C2373.008057,1295.487427 2362.420898,1286.438721 2352.237549,1276.962646 
	C2347.383057,1272.445312 2341.588135,1268.243408 2338.524170,1262.638794 
	C2331.714355,1250.181396 2321.489746,1240.073975 2316.075195,1226.568115 
	C2308.926270,1208.736450 2301.897217,1191.622559 2305.346924,1171.457520 
	C2308.492676,1153.068237 2315.272705,1137.444092 2329.408203,1125.137207 
	C2332.545898,1122.405273 2335.264160,1119.191528 2339.060059,1115.290649 
	C2331.512695,1111.278931 2324.619385,1108.961304 2319.509277,1104.568848 
	C2312.626709,1098.652832 2304.574951,1096.244263 2296.404297,1094.247803 
	C2282.781738,1090.919312 2269.068115,1092.302734 2255.118652,1093.700562 
	C2238.722900,1095.343506 2226.211670,1104.039307 2213.235352,1112.188477 
	C2208.304199,1115.285645 2203.680664,1119.827393 2200.624023,1124.767090 
	C2192.862061,1137.311646 2184.995117,1149.574463 2183.715332,1165.411011 
	C2182.239502,1183.679077 2181.050781,1201.737427 2185.668701,1219.540649 
	C2189.946533,1236.032349 2195.250000,1252.259277 2200.170166,1268.582031 
	C2201.981934,1274.591675 2203.820557,1280.602783 2205.938477,1286.508789 
	C2213.489014,1307.562134 2221.596436,1328.427124 2228.650146,1349.643677 
	C2233.831543,1365.228760 2240.065186,1380.508423 2242.708740,1396.935669 
	C2244.513672,1408.152100 2249.183350,1418.741577 2250.018311,1430.314087 
	C2251.147705,1445.961304 2253.954590,1461.324341 2252.202637,1477.319336 
	C2250.807617,1490.053955 2250.189941,1502.722778 2246.646973,1515.185059 
	C2243.199707,1527.312866 2239.598633,1539.312256 2232.665527,1549.917969 
	C2228.559570,1556.198730 2222.548828,1561.432861 2219.389648,1568.084961 
	C2215.251465,1576.798584 2207.202148,1580.972778 2200.763672,1586.831055 
	C2194.775146,1592.280518 2187.518311,1597.143555 2179.957031,1599.887695 
	C2164.641357,1605.446045 2149.382568,1611.614014 2132.697754,1612.646362 
	C2126.000244,1613.060669 2124.049072,1612.837402 2123.305176,1607.677246 
	C2122.361328,1601.125244 2124.557617,1597.863159 2131.253174,1598.357422 
	C2137.822021,1598.842285 2143.501953,1596.387329 2149.553223,1595.092041 
	C2165.619385,1591.653564 2179.711914,1584.605347 2193.268311,1575.062500 
	C2207.777588,1564.848755 2217.130127,1550.776001 2224.564697,1536.030029 
	C2234.860840,1515.608154 2237.075439,1492.506836 2238.083496,1469.813232 
	C2238.739258,1455.049561 2236.002686,1440.354736 2233.933594,1425.640991 
	C2230.511719,1401.306396 2223.635010,1378.179688 2215.002197,1355.307739 
	C2212.712158,1349.240479 2209.816162,1347.897339 2204.269531,1347.942871 
	C2189.271973,1348.065796 2174.243896,1348.441040 2159.279541,1347.691650 
	C2136.115723,1346.531616 2114.035400,1351.121216 2092.217285,1358.166870 
	C2068.534912,1365.814697 2046.564819,1377.159424 2025.693970,1390.362183 
	C2015.007690,1397.122070 2004.545654,1404.629272 1995.599854,1413.975586 
	C1985.770020,1424.245483 1973.938965,1432.872437 1965.446777,1444.083984 
	C1953.796997,1459.464355 1944.271973,1476.484375 1934.264893,1493.060303 
	C1931.222534,1498.099731 1930.400879,1504.529175 1927.165161,1509.392700 
	C1918.134155,1522.967651 1915.686035,1538.872192 1912.252686,1553.958862 
	C1907.214111,1576.098145 1905.688110,1598.921021 1905.714478,1621.859619 
	C1905.975830,1849.179443 1905.902466,2076.499756 1905.927612,2303.819824 
	C1905.938721,2404.147217 1905.950562,2504.474854 1906.001709,2604.802246 
	C1906.003784,2608.957275 1906.408447,2613.112305 1906.653809,2617.809570 
	C1911.929932,2617.809570 1915.907593,2617.809814 1919.885132,2617.809570 
	C1945.550293,2617.808350 1971.223877,2618.216309 1996.878174,2617.685547 
	C2020.422729,2617.198975 2043.955078,2619.442383 2067.548340,2616.230957 
	C2085.930176,2613.729004 2103.536621,2608.882568 2121.085205,2603.382080 
	C2124.539795,2602.299561 2128.060791,2601.241211 2131.280762,2599.631104 
	C2143.312500,2593.615479 2155.561279,2587.928711 2167.098633,2581.060547 
	C2178.372559,2574.349121 2189.279785,2566.858398 2199.599854,2558.757080 
	C2208.901855,2551.454590 2217.190918,2542.862061 2226.946045,2533.821533 
M1729.354858,2536.256104 
	C1735.175537,2528.821045 1740.808472,2521.229492 1746.852295,2513.980469 
	C1764.398438,2492.935547 1775.940186,2468.565918 1786.155640,2443.469971 
	C1788.002563,2438.932861 1788.528564,2433.853516 1790.412964,2429.336914 
	C1797.852539,2411.504150 1801.144287,2392.504150 1801.267578,2373.686768 
	C1801.928833,2272.705566 1801.483398,2171.717041 1801.473877,2070.731201 
	C1801.451660,1835.429199 1801.460083,1600.127075 1801.456299,1364.825073 
	C1801.456299,1359.586792 1801.456299,1354.348511 1801.456299,1349.156738 
	C1791.602295,1347.796387 1783.156860,1345.776123 1774.677002,1345.619507 
	C1748.697021,1345.139160 1722.700562,1345.115967 1696.716919,1345.434937 
	C1682.813965,1345.605469 1668.922119,1347.467773 1655.028809,1347.425415 
	C1641.309937,1347.383545 1627.879761,1349.360840 1614.927612,1352.977417 
	C1598.226929,1357.640991 1581.994873,1363.624756 1565.926025,1370.722046 
	C1537.970581,1383.069458 1514.859131,1401.734131 1491.659790,1420.520264 
	C1483.275146,1427.309937 1475.943481,1435.830078 1469.601196,1444.620972 
	C1456.902100,1462.222534 1443.900635,1479.860229 1435.725220,1500.145264 
	C1428.616699,1517.782959 1421.314087,1535.593262 1416.899780,1553.999390 
	C1411.916260,1574.779175 1410.344604,1596.252930 1410.363159,1617.855835 
	C1410.585571,1877.154419 1410.524414,2136.453369 1410.544556,2395.752197 
	C1410.549927,2465.409668 1410.565552,2535.066895 1410.631226,2604.724365 
	C1410.635132,2608.882080 1411.126709,2613.039307 1411.430420,2617.812744 
	C1416.957397,2617.812744 1421.264526,2617.811768 1425.571655,2617.812744 
	C1460.567017,2617.821777 1495.563965,2617.627686 1530.556885,2617.921631 
	C1549.789795,2618.083252 1568.899048,2617.605713 1587.876221,2614.067627 
	C1604.444824,2610.978271 1620.550293,2606.184326 1635.988159,2599.686523 
	C1648.652466,2594.356201 1660.887817,2587.798340 1672.743652,2580.817139 
	C1683.453247,2574.510498 1693.765381,2567.371826 1703.557129,2559.710938 
	C1712.308105,2552.864014 1720.109497,2544.803467 1729.354858,2536.256104 
M1306.164185,1791.000000 
	C1306.166138,1741.679810 1306.167236,1692.359619 1306.170410,1643.039429 
	C1306.173462,1594.052124 1306.243652,1545.064697 1306.164795,1496.077515 
	C1306.085571,1446.911621 1306.532227,1397.738159 1305.869995,1348.995605 
	C1296.272095,1347.700195 1288.121582,1345.783569 1279.938110,1345.631714 
	C1236.381226,1344.823120 1192.817261,1344.532349 1149.311035,1347.560547 
	C1148.646729,1347.606689 1147.980103,1347.639648 1147.319824,1347.721191 
	C1127.283813,1350.198242 1107.932495,1355.559570 1088.999634,1362.313721 
	C1081.993164,1364.813232 1075.541504,1368.875610 1068.853516,1372.258179 
	C1061.509888,1375.972290 1054.024048,1379.441528 1046.886597,1383.519043 
	C1031.980957,1392.034302 1018.826904,1402.869751 1005.412292,1413.577271 
	C993.296936,1423.247437 983.956482,1435.021118 974.171204,1446.388062 
	C964.593506,1457.514038 955.771362,1469.634033 949.351624,1483.098267 
	C943.548828,1495.268555 937.214355,1507.272339 932.581421,1519.888184 
	C928.070679,1532.171265 925.980042,1545.325562 921.802490,1557.753052 
	C917.314514,1571.104126 916.045593,1585.035767 916.021179,1598.593140 
	C915.628723,1816.535767 915.780334,2034.479248 915.834961,2252.422607 
	C915.864319,2369.725586 915.938354,2487.028320 916.026062,2604.331299 
	C916.029236,2608.522949 916.393311,2612.714355 916.629578,2617.770996 
	C921.645447,2617.770996 925.587097,2617.766846 929.528748,2617.771484 
	C972.517517,2617.823486 1015.506775,2618.005615 1058.494507,2617.824951 
	C1067.361328,2617.787598 1076.284058,2616.824463 1085.072388,2615.542725 
	C1100.082397,2613.353760 1114.454468,2608.583252 1128.747437,2603.618652 
	C1132.795410,2602.212402 1137.193970,2601.596436 1140.989014,2599.721680 
	C1152.730591,2593.922119 1164.300415,2587.768311 1175.860474,2581.608643 
	C1194.852783,2571.488525 1211.055298,2557.604736 1226.692261,2543.081543 
	C1232.172241,2537.991943 1236.772705,2531.938721 1241.642578,2526.213379 
	C1248.207153,2518.495850 1255.563232,2511.249023 1260.916870,2502.752441 
	C1268.620483,2490.526855 1274.837158,2477.363281 1281.667969,2464.589111 
	C1284.296265,2459.674072 1287.818970,2454.994385 1289.284302,2449.746826 
	C1293.348145,2435.194824 1299.636719,2421.253662 1301.385986,2406.052734 
	C1302.891235,2392.973145 1305.991577,2379.919189 1306.010986,2366.850586 
	C1306.296265,2175.567383 1306.182739,1984.283569 1306.164185,1791.000000 
M1244.204834,3103.000000 
	C1244.204834,3029.090332 1244.204834,2955.180908 1244.204834,2880.717529 
	C1237.039429,2881.224609 1231.492432,2878.257080 1224.895996,2879.995361 
	C1220.200195,2881.232666 1214.568481,2878.300049 1209.381836,2878.419434 
	C1197.821167,2878.684814 1186.268555,2879.583008 1174.735596,2880.509033 
	C1172.645264,2880.676270 1170.088501,2881.680176 1168.724976,2883.184326 
	C1159.203125,2893.688721 1149.886108,2904.381592 1140.613525,2915.109131 
	C1136.100220,2920.330811 1131.856323,2925.784180 1127.433105,2931.085205 
	C1120.915283,2938.896484 1114.497070,2946.798340 1107.763672,2954.420898 
	C1097.536621,2965.998047 1087.075439,2977.368164 1076.468628,2989.097412 
	C1075.307251,2988.574951 1073.420776,2988.285400 1072.418091,2987.188477 
	C1062.218506,2976.028320 1052.153442,2964.744873 1042.083496,2953.466797 
	C1041.213013,2952.491943 1040.667725,2951.229980 1039.815308,2950.234863 
	C1024.552124,2932.420654 1009.246155,2914.642578 994.008972,2896.806152 
	C992.317078,2894.825439 991.246094,2892.281250 989.436035,2890.442139 
	C986.000977,2886.952637 982.751648,2882.423828 978.487061,2880.817871 
	C972.794189,2878.674072 966.192932,2878.141602 960.007507,2878.259766 
	C942.524536,2878.594482 925.054749,2879.614014 906.986938,2880.389160 
	C906.986938,2984.172119 906.986938,3086.974365 906.986938,3190.298340 
	C934.541138,3190.298340 961.646484,3190.298340 989.626404,3190.298340 
	C988.695557,3178.460205 990.299133,3167.552002 990.044250,3156.322754 
	C988.970520,3109.014648 989.584106,3061.667725 989.664001,3014.335205 
	C989.667419,3012.297852 990.497925,3010.262207 991.239075,3006.871826 
	C1002.862671,3020.610107 1013.460571,3033.158691 1024.083496,3045.686035 
	C1037.087280,3061.021240 1050.145630,3076.310059 1063.111816,3091.676758 
	C1068.525879,3098.093506 1083.151978,3098.479736 1087.741821,3091.583984 
	C1097.359619,3077.134277 1111.741577,3067.088623 1122.121216,3053.371338 
	C1129.666992,3043.399414 1137.501465,3033.634521 1145.352173,3023.904053 
	C1149.949097,3018.206543 1155.311157,3014.233398 1161.713257,3007.630371 
	C1161.713257,3069.790527 1161.713257,3129.641846 1161.713257,3190.248535 
	C1189.464233,3190.248535 1216.276001,3190.248535 1244.206787,3190.248535 
	C1244.206787,3161.508301 1244.206787,3133.254150 1244.204834,3103.000000 
M2514.605957,3191.166504 
	C2536.154053,3194.599365 2557.604980,3195.145752 2579.369141,3190.287354 
	C2578.000977,3185.838135 2577.368164,3182.559570 2576.020508,3179.607178 
	C2569.987061,3166.391113 2563.790039,3153.249023 2557.574463,3140.116943 
	C2551.925049,3128.180908 2545.582275,3116.534912 2540.598145,3104.330811 
	C2531.405029,3081.820557 2519.331055,3061.430664 2501.305664,3045.416748 
	C2506.623047,3041.739990 2512.173340,3038.176025 2517.412598,3034.201904 
	C2522.590332,3030.273682 2526.966797,3025.505615 2531.243164,3020.553711 
	C2537.837646,3012.917480 2542.352539,3004.129883 2545.573242,2994.878174 
	C2550.675049,2980.223877 2549.547852,2965.033203 2546.686035,2950.052734 
	C2545.653320,2944.646973 2543.829590,2939.313965 2541.737305,2934.205322 
	C2537.263916,2923.282715 2529.452881,2914.899170 2521.143311,2906.621094 
	C2508.812988,2894.337402 2494.385986,2886.261230 2477.736084,2882.223145 
	C2464.900146,2879.110352 2451.771240,2877.627441 2438.482666,2878.090820 
	C2401.635986,2879.375977 2364.680420,2875.594482 2327.907227,2880.451660 
	C2326.925781,2880.581055 2325.753906,2880.777344 2324.935303,2880.387451 
	C2318.683838,2877.408936 2312.967773,2880.811523 2306.404297,2881.130127 
	C2306.404297,2984.245117 2306.404297,3086.764648 2306.404297,3190.166992 
	C2309.901611,3190.451904 2313.123291,3190.736572 2316.348877,3190.973877 
	C2328.843750,3191.894043 2341.599609,3188.820801 2353.873291,3193.478516 
	C2354.992676,3193.903320 2356.493408,3193.401855 2357.803711,3193.228271 
	C2363.316406,3192.499756 2368.803955,3191.350342 2374.337402,3191.062988 
	C2384.343018,3190.543213 2385.171143,3190.012207 2385.258789,3180.072021 
	C2385.376221,3166.740234 2383.802246,3153.160645 2385.847168,3140.142090 
	C2387.995117,3126.468994 2387.325195,3113.037842 2387.362061,3099.471924 
	C2387.391602,3088.598389 2387.545166,3077.725342 2387.646973,3066.481445 
	C2391.478027,3066.147705 2394.114258,3065.518555 2396.655762,3065.786377 
	C2400.876953,3066.231934 2405.053467,3067.988281 2409.220703,3067.898682 
	C2423.480713,3067.591797 2431.705078,3077.393066 2439.054932,3086.798828 
	C2450.000244,3100.805664 2456.955811,3117.406006 2464.501953,3133.454590 
	C2472.374023,3150.196045 2479.513428,3167.283447 2486.865234,3184.266357 
	C2488.977783,3189.146240 2492.354248,3191.449463 2497.727783,3191.201904 
	C2502.717529,3190.972168 2507.725098,3191.127930 2514.605957,3191.166504 
M1348.555420,3003.569580 
	C1347.579956,3006.021240 1346.558228,3008.456055 1345.637817,3010.928223 
	C1343.113037,3017.708496 1340.816772,3024.581299 1338.077271,3031.272705 
	C1335.587524,3037.354248 1332.029297,3043.047852 1329.999268,3049.258301 
	C1324.070557,3067.395264 1316.006348,3084.638428 1308.804077,3102.247314 
	C1301.438599,3120.254639 1294.709106,3138.521973 1287.699585,3156.674805 
	C1286.628296,3159.449219 1286.071533,3162.599609 1284.380981,3164.924805 
	C1278.983521,3172.348389 1277.356445,3180.965088 1275.065063,3189.673584 
	C1289.036377,3191.028809 1302.405029,3193.161377 1315.806152,3193.387939 
	C1328.956909,3193.610352 1342.137939,3191.850830 1355.311523,3191.058838 
	C1358.980713,3190.838379 1361.012695,3189.634033 1362.502930,3185.732422 
	C1368.459351,3170.136963 1375.628052,3154.984619 1381.112305,3139.237793 
	C1383.710205,3131.778320 1387.390747,3129.799072 1394.781738,3129.864014 
	C1432.422852,3130.194580 1470.068359,3130.035400 1507.712280,3130.047607 
	C1510.955811,3130.048584 1514.199341,3130.047852 1516.975342,3130.047852 
	C1520.328125,3137.769775 1523.234741,3144.386719 1526.078369,3151.030762 
	C1530.883301,3162.257080 1535.810913,3173.435547 1540.353760,3184.767334 
	C1542.274414,3189.558350 1545.331421,3191.203613 1550.306641,3191.073975 
	C1557.620850,3190.883057 1565.312744,3189.843018 1572.201782,3191.633789 
	C1590.885620,3196.490234 1608.829102,3191.815918 1627.516602,3189.925781 
	C1627.633057,3187.438721 1628.367310,3185.258057 1627.712646,3183.639648 
	C1621.403931,3168.045166 1615.082397,3152.448730 1608.319458,3137.048096 
	C1602.379517,3123.521240 1595.718750,3110.312500 1589.656860,3096.837402 
	C1584.260254,3084.841309 1579.350708,3072.626709 1574.038818,3060.591309 
	C1568.048584,3047.018799 1561.841431,3033.541992 1555.743774,3020.016602 
	C1553.190186,3014.352539 1550.580322,3008.711182 1548.161621,3002.989502 
	C1540.720337,2985.385742 1533.510742,2967.682617 1525.915649,2950.145752 
	C1520.424194,2937.466064 1514.619019,2924.914551 1508.657471,2912.447754 
	C1504.249146,2903.229248 1499.287842,2894.276855 1494.734009,2885.125732 
	C1493.262573,2882.168945 1491.447021,2880.534912 1487.925903,2880.401367 
	C1470.714722,2879.748291 1453.514160,2878.813965 1436.303833,2878.135986 
	C1429.984619,2877.887207 1423.572998,2877.448730 1417.337280,2878.202393 
	C1407.842529,2879.349854 1397.569946,2879.166504 1393.808838,2891.594971 
	C1390.686523,2901.912354 1386.177490,2911.816650 1382.162720,2921.855957 
	C1375.574341,2938.330811 1368.932739,2954.785156 1362.228027,2971.213135 
	C1357.999390,2981.574219 1353.615356,2991.871582 1348.555420,3003.569580 
M1894.478149,2891.690918 
	C1896.814331,2889.023438 1899.150391,2886.355957 1901.317017,2883.882080 
	C1899.683838,2879.100830 1896.371826,2878.153076 1892.455811,2878.164307 
	C1888.791138,2878.174805 1885.124878,2878.057617 1881.461792,2878.129150 
	C1857.336548,2878.600342 1833.161987,2876.781494 1809.080811,2880.082031 
	C1805.442261,2880.580811 1802.772827,2881.305908 1800.696411,2884.199463 
	C1796.519897,2890.019531 1791.775879,2895.511230 1788.230469,2901.691406 
	C1775.061401,2924.646240 1758.109863,2944.959473 1743.299927,2966.760742 
	C1742.199829,2968.380371 1739.962646,2969.227539 1738.143921,2970.511475 
	C1716.830566,2939.806641 1696.097290,2909.937256 1676.092773,2881.117920 
	C1643.066406,2875.087646 1611.702271,2879.078125 1578.722534,2881.689941 
	C1581.058228,2886.305908 1582.339600,2889.708008 1584.352783,2892.600586 
	C1586.976562,2896.370605 1590.415771,2899.568115 1593.094604,2903.305176 
	C1605.007568,2919.925293 1616.674561,2936.722168 1628.637207,2953.305908 
	C1634.373779,2961.258789 1640.650879,2968.819580 1646.533691,2976.669922 
	C1651.826782,2983.733154 1656.815063,2991.025146 1662.117798,2998.081055 
	C1670.024170,3008.601318 1678.232544,3018.897217 1686.041870,3029.488037 
	C1692.628296,3038.420410 1698.394409,3046.981689 1698.075928,3059.625000 
	C1697.086182,3098.914551 1697.759888,3138.245850 1697.787354,3177.561035 
	C1697.790161,3181.513184 1697.787720,3185.465088 1697.787720,3190.584717 
	C1725.525635,3191.248535 1752.308838,3191.025391 1779.293213,3190.852295 
	C1779.659912,3187.114990 1780.045288,3184.828857 1780.085449,3182.536133 
	C1780.843750,3139.334717 1778.385132,3096.086182 1782.222412,3052.918457 
	C1782.744873,3047.041992 1783.774414,3042.048828 1787.695190,3037.444092 
	C1792.572998,3031.715576 1796.671021,3025.330322 1801.392944,3019.459717 
	C1809.609253,3009.245605 1817.017944,2998.441650 1825.398560,2988.307861 
	C1835.850708,2975.669922 1844.311401,2961.401611 1853.916870,2948.042236 
	C1867.161743,2929.621338 1880.672852,2911.391602 1894.478149,2891.690918 
M2130.999268,1085.174194 
	C2142.655273,1085.138306 2154.312500,1085.182495 2165.967285,1085.043213 
	C2176.986084,1084.911377 2177.304443,1084.587646 2177.310547,1073.775391 
	C2177.341309,1018.158875 2177.336914,962.542358 2177.307861,906.925842 
	C2177.306152,903.673645 2176.978027,900.421570 2176.782959,896.825745 
	C2173.861572,896.428894 2171.633789,895.968140 2169.387939,895.846191 
	C2151.402588,894.870667 2134.180176,897.578430 2117.045410,903.726807 
	C2090.583740,913.222046 2066.573242,926.374146 2046.345215,945.915833 
	C2026.015991,965.555237 2009.665527,988.123596 1999.267822,1014.567139 
	C1991.503296,1034.313843 1989.052368,1055.216553 1987.747314,1076.208740 
	C1987.265991,1083.951782 1988.575439,1084.808838 1996.119751,1085.180542 
	C1998.445435,1085.295166 2000.781372,1085.211182 2003.112549,1085.210449 
	C2045.074707,1085.199097 2087.036865,1085.186401 2130.999268,1085.174194 
M1039.647705,3345.278809 
	C1030.241577,3335.679443 1018.043457,3331.051514 1005.400024,3329.712158 
	C987.317627,3327.796875 969.005737,3327.815430 950.783630,3327.525391 
	C936.270874,3327.294189 921.626038,3326.170166 907.012390,3330.723389 
	C907.012390,3393.336426 907.012390,3456.115234 907.012390,3519.434570 
	C910.570129,3519.634521 913.487061,3519.934814 916.404663,3519.941406 
	C946.060425,3520.009766 975.724915,3519.635986 1005.367554,3520.279541 
	C1015.590515,3520.500977 1025.039917,3518.305664 1034.295532,3515.072021 
	C1051.737915,3508.978271 1062.827515,3497.144531 1066.863281,3478.466797 
	C1068.976074,3468.688477 1068.160889,3459.498291 1066.317993,3450.024902 
	C1064.294800,3439.625000 1060.062622,3430.537598 1051.236572,3424.276367 
	C1046.370728,3420.824463 1041.085571,3417.963379 1035.607422,3414.601562 
	C1037.014038,3412.898926 1037.823975,3410.924805 1039.131104,3410.507568 
	C1044.926147,3408.657959 1046.767578,3403.445557 1049.429932,3399.009521 
	C1055.453125,3388.973389 1056.138306,3377.804199 1053.243530,3367.043701 
	C1051.166870,3359.323975 1048.754883,3350.834961 1039.647705,3345.278809 
M1962.977905,3520.022949 
	C1970.964233,3520.009521 1979.440308,3521.723145 1986.836060,3519.626465 
	C2002.685669,3515.133057 2018.961304,3512.927490 2033.759644,3503.309814 
	C2051.434082,3491.822754 2063.754150,3477.497314 2069.317383,3457.924072 
	C2073.908691,3441.770752 2074.633301,3425.203369 2072.075928,3408.024658 
	C2068.598633,3384.667969 2058.215576,3366.192871 2040.457397,3351.486328 
	C2034.660034,3346.685059 2028.393921,3342.058838 2021.620117,3338.901611 
	C2001.520874,3329.533936 1979.583374,3328.914307 1957.997437,3327.537842 
	C1943.737549,3326.628418 1929.359131,3326.939941 1915.062134,3327.470703 
	C1904.964478,3327.845459 1894.914307,3329.503662 1884.713379,3330.602783 
	C1884.713379,3393.855957 1884.713379,3456.293945 1884.713379,3520.026611 
	C1910.573853,3520.026611 1935.779785,3520.026611 1962.977905,3520.022949 
M2428.332031,3475.000000 
	C2428.332031,3489.562744 2428.332031,3504.125488 2428.332031,3518.401855 
	C2438.920410,3520.721924 2471.986816,3520.481689 2479.751465,3518.241455 
	C2480.336182,3513.135986 2481.468018,3507.943359 2481.426270,3502.760010 
	C2481.287354,3485.519531 2480.688965,3468.282715 2480.351318,3451.042969 
	C2480.251221,3445.925049 2483.308350,3444.132324 2488.048584,3444.090332 
	C2495.418213,3444.025146 2502.164551,3446.493408 2506.423340,3452.116943 
	C2512.146729,3459.674072 2517.097900,3467.964111 2521.347656,3476.456299 
	C2528.420898,3490.591553 2534.673584,3505.137695 2541.202393,3519.359863 
	C2560.024658,3519.359863 2578.477051,3519.359863 2596.999023,3519.359863 
	C2597.123535,3517.665039 2597.562012,3516.528809 2597.212158,3515.744385 
	C2590.503662,3500.709961 2583.933594,3485.606689 2576.852539,3470.747314 
	C2570.208984,3456.805908 2563.458740,3442.845215 2551.429199,3431.807129 
	C2556.588623,3427.288330 2561.780518,3423.722900 2565.727051,3419.095703 
	C2576.400146,3406.582764 2581.568359,3392.777344 2578.010986,3375.544434 
	C2573.970215,3355.969971 2562.724365,3342.637939 2545.589844,3334.740234 
	C2533.439209,3329.139648 2519.831787,3327.020020 2506.178711,3327.094238 
	C2488.869141,3327.188477 2471.549316,3326.946777 2454.254639,3327.501953 
	C2445.822266,3327.772705 2437.437256,3329.521729 2428.332031,3330.691162 
	C2428.332031,3378.558838 2428.332031,3425.779541 2428.332031,3475.000000 
M1218.171387,3361.008301 
	C1218.171387,3351.033203 1218.171387,3341.057861 1218.171387,3330.773193 
	C1201.407837,3328.284912 1185.270142,3326.949219 1169.044067,3331.114746 
	C1168.893921,3332.940430 1168.694336,3334.256836 1168.690674,3335.573975 
	C1168.583862,3374.562988 1168.174927,3413.554932 1168.564941,3452.539062 
	C1168.719971,3468.048096 1174.199707,3482.653320 1184.588135,3494.014893 
	C1201.369751,3512.368652 1223.336792,3520.824951 1248.006104,3522.053467 
	C1256.979736,3522.500488 1265.996826,3521.998535 1274.991943,3522.104736 
	C1298.043579,3522.376953 1318.062012,3514.840088 1335.842773,3500.103516 
	C1351.016113,3487.527832 1357.710571,3470.958008 1358.104126,3452.318359 
	C1358.898682,3414.678711 1358.315308,3377.009521 1358.259399,3339.352539 
	C1358.255127,3336.457520 1357.929443,3333.562744 1357.719604,3330.118408 
	C1340.341675,3329.305420 1323.557251,3329.680908 1306.255493,3329.720215 
	C1306.255493,3334.507568 1306.253540,3337.820312 1306.255615,3341.132812 
	C1306.276367,3374.124268 1306.699951,3407.122314 1306.186279,3440.105469 
	C1305.804565,3464.613281 1291.562256,3475.139648 1267.354248,3479.369141 
	C1256.754028,3481.220703 1247.188232,3477.912109 1238.246338,3472.453125 
	C1229.142944,3466.895752 1221.441406,3459.733887 1220.530273,3448.633057 
	C1219.121460,3431.471436 1218.704956,3414.218994 1218.210449,3396.995117 
	C1217.885376,3385.674072 1218.163452,3374.335938 1218.171387,3361.008301 
M2268.973633,3327.447021 
	C2255.319580,3327.447266 2241.655273,3327.773926 2228.014160,3327.355225 
	C2214.526611,3326.941162 2201.087891,3328.232666 2187.609619,3327.928955 
	C2185.213867,3327.875000 2182.778809,3329.558105 2180.821533,3330.271484 
	C2179.726318,3348.204346 2177.916992,3365.370850 2177.825195,3382.546631 
	C2177.715332,3403.084229 2179.099854,3423.628906 2179.767090,3444.172607 
	C2179.864014,3447.155762 2179.941650,3450.221436 2179.397217,3453.130615 
	C2175.262939,3475.224854 2178.319336,3497.097656 2180.636719,3520.057373 
	C2227.909912,3519.876221 2274.638672,3520.267822 2321.957764,3519.880127 
	C2322.295166,3506.338135 2322.699951,3494.251221 2321.838623,3481.599609 
	C2290.655029,3481.124512 2260.500732,3481.802002 2230.647217,3481.219727 
	C2228.349121,3468.186768 2228.837891,3449.552734 2231.648682,3442.115234 
	C2240.663818,3442.115234 2249.949463,3442.113037 2259.234863,3442.115967 
	C2268.892578,3442.119141 2278.552490,3442.262207 2288.207031,3442.094727 
	C2297.358887,3441.936279 2306.598389,3442.841553 2315.036621,3441.658691 
	C2316.225098,3430.413574 2317.281738,3420.578857 2318.296143,3410.739990 
	C2318.686768,3406.951172 2317.386719,3404.127930 2313.371338,3403.318604 
	C2309.853027,3402.609131 2306.289062,3401.663330 2302.740234,3401.641602 
	C2278.829102,3401.493896 2254.916748,3401.564453 2229.793213,3401.564453 
	C2229.247314,3390.515137 2228.597168,3379.838867 2230.102295,3368.754395 
	C2232.529785,3368.495361 2234.134766,3368.180908 2235.740967,3368.175781 
	C2247.729736,3368.136719 2259.718506,3368.157715 2271.707275,3368.162842 
	C2285.028320,3368.168457 2298.350342,3368.288818 2311.669678,3368.140869 
	C2319.293945,3368.056396 2320.103760,3367.137207 2320.281494,3359.369629 
	C2320.441406,3352.379395 2320.385498,3345.383301 2320.359619,3338.390137 
	C2320.320312,3327.762695 2320.175049,3327.496826 2309.920166,3327.404297 
	C2296.934814,3327.287109 2283.947510,3327.420898 2268.973633,3327.447021 
z"/>
<path fill="#A15D4B" opacity="1.000000" stroke="none" 
	d="
M2226.436523,2534.330078 
	C2217.190918,2542.862061 2208.901855,2551.454590 2199.599854,2558.757080 
	C2189.279785,2566.858398 2178.372559,2574.349121 2167.098633,2581.060547 
	C2155.561279,2587.928711 2143.312500,2593.615479 2131.280762,2599.631104 
	C2128.060791,2601.241211 2124.539795,2602.299561 2121.085205,2603.382080 
	C2103.536621,2608.882568 2085.930176,2613.729004 2067.548340,2616.230957 
	C2043.955078,2619.442383 2020.422729,2617.198975 1996.878174,2617.685547 
	C1971.223877,2618.216309 1945.550293,2617.808350 1919.885132,2617.809570 
	C1915.907593,2617.809814 1911.929932,2617.809570 1906.653809,2617.809570 
	C1906.408447,2613.112305 1906.003784,2608.957275 1906.001709,2604.802246 
	C1905.950562,2504.474854 1905.938721,2404.147217 1905.927612,2303.819824 
	C1905.902466,2076.499756 1905.975830,1849.179443 1905.714478,1621.859619 
	C1905.688110,1598.921021 1907.214111,1576.098145 1912.252686,1553.958862 
	C1915.686035,1538.872192 1918.134155,1522.967651 1927.165161,1509.392700 
	C1930.400879,1504.529175 1931.222534,1498.099731 1934.264893,1493.060303 
	C1944.271973,1476.484375 1953.796997,1459.464355 1965.446777,1444.083984 
	C1973.938965,1432.872437 1985.770020,1424.245483 1995.599854,1413.975586 
	C2004.545654,1404.629272 2015.007690,1397.122070 2025.693970,1390.362183 
	C2046.564819,1377.159424 2068.534912,1365.814697 2092.217285,1358.166870 
	C2114.035400,1351.121216 2136.115723,1346.531616 2159.279541,1347.691650 
	C2174.243896,1348.441040 2189.271973,1348.065796 2204.269531,1347.942871 
	C2209.816162,1347.897339 2212.712158,1349.240479 2215.002197,1355.307739 
	C2223.635010,1378.179688 2230.511719,1401.306396 2233.933594,1425.640991 
	C2236.002686,1440.354736 2238.739258,1455.049561 2238.083496,1469.813232 
	C2237.075439,1492.506836 2234.860840,1515.608154 2224.564697,1536.030029 
	C2217.130127,1550.776001 2207.777588,1564.848755 2193.268311,1575.062500 
	C2179.711914,1584.605347 2165.619385,1591.653564 2149.553223,1595.092041 
	C2143.501953,1596.387329 2137.822021,1598.842285 2131.253174,1598.357422 
	C2124.557617,1597.863159 2122.361328,1601.125244 2123.305176,1607.677246 
	C2124.049072,1612.837402 2126.000244,1613.060669 2132.697754,1612.646362 
	C2149.382568,1611.614014 2164.641357,1605.446045 2179.957031,1599.887695 
	C2187.518311,1597.143555 2194.775146,1592.280518 2200.763672,1586.831055 
	C2207.202148,1580.972778 2215.251465,1576.798584 2219.389648,1568.084961 
	C2222.548828,1561.432861 2228.559570,1556.198730 2232.665527,1549.917969 
	C2239.598633,1539.312256 2243.199707,1527.312866 2246.646973,1515.185059 
	C2250.189941,1502.722778 2250.807617,1490.053955 2252.202637,1477.319336 
	C2253.954590,1461.324341 2251.147705,1445.961304 2250.018311,1430.314087 
	C2249.183350,1418.741577 2244.513672,1408.152100 2242.708740,1396.935669 
	C2240.065186,1380.508423 2233.831543,1365.228760 2228.650146,1349.643677 
	C2221.596436,1328.427124 2213.489014,1307.562134 2205.938477,1286.508789 
	C2203.820557,1280.602783 2201.981934,1274.591675 2200.170166,1268.582031 
	C2195.250000,1252.259277 2189.946533,1236.032349 2185.668701,1219.540649 
	C2181.050781,1201.737427 2182.239502,1183.679077 2183.715332,1165.411011 
	C2184.995117,1149.574463 2192.862061,1137.311646 2200.624023,1124.767090 
	C2203.680664,1119.827393 2208.304199,1115.285645 2213.235352,1112.188477 
	C2226.211670,1104.039307 2238.722900,1095.343506 2255.118652,1093.700562 
	C2269.068115,1092.302734 2282.781738,1090.919312 2296.404297,1094.247803 
	C2304.574951,1096.244263 2312.626709,1098.652832 2319.509277,1104.568848 
	C2324.619385,1108.961304 2331.512695,1111.278931 2339.060059,1115.290649 
	C2335.264160,1119.191528 2332.545898,1122.405273 2329.408203,1125.137207 
	C2315.272705,1137.444092 2308.492676,1153.068237 2305.346924,1171.457520 
	C2301.897217,1191.622559 2308.926270,1208.736450 2316.075195,1226.568115 
	C2321.489746,1240.073975 2331.714355,1250.181396 2338.524170,1262.638794 
	C2341.588135,1268.243408 2347.383057,1272.445312 2352.237549,1276.962646 
	C2362.420898,1286.438721 2373.008057,1295.487427 2383.048340,1305.109253 
	C2395.054443,1316.614868 2406.841553,1328.363037 2418.389648,1340.328491 
	C2428.727051,1351.039429 2439.020996,1361.843384 2448.596924,1373.226196 
	C2462.187500,1389.381104 2475.107910,1406.100098 2488.302246,1422.588013 
	C2491.792969,1426.950195 2495.336426,1431.275146 2498.685059,1435.744751 
	C2508.637207,1449.026978 2516.994385,1463.279907 2522.302734,1479.015991 
	C2528.721436,1498.043213 2533.070557,1517.429932 2534.617432,1537.699463 
	C2535.654297,1551.291382 2535.815918,1564.817261 2536.229004,1578.381592 
	C2537.144287,1608.437866 2531.752930,1637.490723 2522.279785,1665.873413 
	C2513.674316,1691.656738 2501.137451,1715.460938 2484.496094,1736.901855 
	C2474.663086,1749.571289 2463.921143,1761.561646 2453.164795,1773.475464 
	C2448.755615,1778.359131 2443.431885,1782.498291 2438.173340,1786.517212 
	C2426.435547,1795.487793 2414.934326,1804.888306 2402.497803,1812.794189 
	C2385.524170,1823.584351 2367.473389,1832.673096 2348.088135,1838.350586 
	C2336.462646,1841.755127 2324.432617,1843.899902 2312.478760,1846.013428 
	C2305.366455,1847.271118 2297.988281,1846.987305 2290.845703,1848.124756 
	C2286.088379,1848.882080 2281.535400,1850.923462 2276.171387,1852.617432 
	C2276.171387,1855.782104 2276.171387,1859.292114 2276.171387,1863.611938 
	C2282.392822,1863.990845 2288.548096,1864.365601 2295.943848,1864.816040 
	C2295.943848,1869.162476 2295.943359,1873.062988 2295.943848,1876.963501 
	C2295.969482,2033.287598 2295.994141,2189.611816 2296.024658,2345.935791 
	C2296.025635,2351.602051 2296.046387,2357.268555 2296.119385,2362.934326 
	C2296.427246,2386.884521 2291.603760,2410.026855 2285.260986,2432.951904 
	C2280.730713,2449.326172 2272.998535,2464.187988 2265.116699,2479.148193 
	C2258.926514,2490.897949 2251.318604,2501.466797 2243.481689,2511.996582 
	C2238.032227,2519.318115 2232.462158,2526.549561 2226.436523,2534.330078 
z"/>
<path fill="#A15D4B" opacity="1.000000" stroke="none" 
	d="
M1728.842285,2536.767334 
	C1720.109497,2544.803467 1712.308105,2552.864014 1703.557129,2559.710938 
	C1693.765381,2567.371826 1683.453247,2574.510498 1672.743652,2580.817139 
	C1660.887817,2587.798340 1648.652466,2594.356201 1635.988159,2599.686523 
	C1620.550293,2606.184326 1604.444824,2610.978271 1587.876221,2614.067627 
	C1568.899048,2617.605713 1549.789795,2618.083252 1530.556885,2617.921631 
	C1495.563965,2617.627686 1460.567017,2617.821777 1425.571655,2617.812744 
	C1421.264526,2617.811768 1416.957397,2617.812744 1411.430420,2617.812744 
	C1411.126709,2613.039307 1410.635132,2608.882080 1410.631226,2604.724365 
	C1410.565552,2535.066895 1410.549927,2465.409668 1410.544556,2395.752197 
	C1410.524414,2136.453369 1410.585571,1877.154419 1410.363159,1617.855835 
	C1410.344604,1596.252930 1411.916260,1574.779175 1416.899780,1553.999390 
	C1421.314087,1535.593262 1428.616699,1517.782959 1435.725220,1500.145264 
	C1443.900635,1479.860229 1456.902100,1462.222534 1469.601196,1444.620972 
	C1475.943481,1435.830078 1483.275146,1427.309937 1491.659790,1420.520264 
	C1514.859131,1401.734131 1537.970581,1383.069458 1565.926025,1370.722046 
	C1581.994873,1363.624756 1598.226929,1357.640991 1614.927612,1352.977417 
	C1627.879761,1349.360840 1641.309937,1347.383545 1655.028809,1347.425415 
	C1668.922119,1347.467773 1682.813965,1345.605469 1696.716919,1345.434937 
	C1722.700562,1345.115967 1748.697021,1345.139160 1774.677002,1345.619507 
	C1783.156860,1345.776123 1791.602295,1347.796387 1801.456299,1349.156738 
	C1801.456299,1354.348511 1801.456299,1359.586792 1801.456299,1364.825073 
	C1801.460083,1600.127075 1801.451660,1835.429199 1801.473877,2070.731201 
	C1801.483398,2171.717041 1801.928833,2272.705566 1801.267578,2373.686768 
	C1801.144287,2392.504150 1797.852539,2411.504150 1790.412964,2429.336914 
	C1788.528564,2433.853516 1788.002563,2438.932861 1786.155640,2443.469971 
	C1775.940186,2468.565918 1764.398438,2492.935547 1746.852295,2513.980469 
	C1740.808472,2521.229492 1735.175537,2528.821045 1728.842285,2536.767334 
z"/>
<path fill="#A25D4B" opacity="1.000000" stroke="none" 
	d="
M1306.164062,1792.000000 
	C1306.182739,1984.283569 1306.296265,2175.567383 1306.010986,2366.850586 
	C1305.991577,2379.919189 1302.891235,2392.973145 1301.385986,2406.052734 
	C1299.636719,2421.253662 1293.348145,2435.194824 1289.284302,2449.746826 
	C1287.818970,2454.994385 1284.296265,2459.674072 1281.667969,2464.589111 
	C1274.837158,2477.363281 1268.620483,2490.526855 1260.916870,2502.752441 
	C1255.563232,2511.249023 1248.207153,2518.495850 1241.642578,2526.213379 
	C1236.772705,2531.938721 1232.172241,2537.991943 1226.692261,2543.081543 
	C1211.055298,2557.604736 1194.852783,2571.488525 1175.860474,2581.608643 
	C1164.300415,2587.768311 1152.730591,2593.922119 1140.989014,2599.721680 
	C1137.193970,2601.596436 1132.795410,2602.212402 1128.747437,2603.618652 
	C1114.454468,2608.583252 1100.082397,2613.353760 1085.072388,2615.542725 
	C1076.284058,2616.824463 1067.361328,2617.787598 1058.494507,2617.824951 
	C1015.506775,2618.005615 972.517517,2617.823486 929.528748,2617.771484 
	C925.587097,2617.766846 921.645447,2617.770996 916.629578,2617.770996 
	C916.393311,2612.714355 916.029236,2608.522949 916.026062,2604.331299 
	C915.938354,2487.028320 915.864319,2369.725586 915.834961,2252.422607 
	C915.780334,2034.479248 915.628723,1816.535767 916.021179,1598.593140 
	C916.045593,1585.035767 917.314514,1571.104126 921.802490,1557.753052 
	C925.980042,1545.325562 928.070679,1532.171265 932.581421,1519.888184 
	C937.214355,1507.272339 943.548828,1495.268555 949.351624,1483.098267 
	C955.771362,1469.634033 964.593506,1457.514038 974.171204,1446.388062 
	C983.956482,1435.021118 993.296936,1423.247437 1005.412292,1413.577271 
	C1018.826904,1402.869751 1031.980957,1392.034302 1046.886597,1383.519043 
	C1054.024048,1379.441528 1061.509888,1375.972290 1068.853516,1372.258179 
	C1075.541504,1368.875610 1081.993164,1364.813232 1088.999634,1362.313721 
	C1107.932495,1355.559570 1127.283813,1350.198242 1147.319824,1347.721191 
	C1147.980103,1347.639648 1148.646729,1347.606689 1149.311035,1347.560547 
	C1192.817261,1344.532349 1236.381226,1344.823120 1279.938110,1345.631714 
	C1288.121582,1345.783569 1296.272095,1347.700195 1305.869995,1348.995605 
	C1306.532227,1397.738159 1306.085571,1446.911621 1306.164795,1496.077515 
	C1306.243652,1545.064697 1306.173462,1594.052124 1306.170410,1643.039429 
	C1306.167236,1692.359619 1306.166138,1741.679810 1306.164062,1792.000000 
z"/>
<path fill="#9F5B4A" opacity="1.000000" stroke="none" 
	d="
M1244.205811,3104.000000 
	C1244.206787,3133.254150 1244.206787,3161.508301 1244.206787,3190.248535 
	C1216.276001,3190.248535 1189.464233,3190.248535 1161.713257,3190.248535 
	C1161.713257,3129.641846 1161.713257,3069.790527 1161.713257,3007.630371 
	C1155.311157,3014.233398 1149.949097,3018.206543 1145.352173,3023.904053 
	C1137.501465,3033.634521 1129.666992,3043.399414 1122.121216,3053.371338 
	C1111.741577,3067.088623 1097.359619,3077.134277 1087.741821,3091.583984 
	C1083.151978,3098.479736 1068.525879,3098.093506 1063.111816,3091.676758 
	C1050.145630,3076.310059 1037.087280,3061.021240 1024.083496,3045.686035 
	C1013.460571,3033.158691 1002.862671,3020.610107 991.239075,3006.871826 
	C990.497925,3010.262207 989.667419,3012.297852 989.664001,3014.335205 
	C989.584106,3061.667725 988.970520,3109.014648 990.044250,3156.322754 
	C990.299133,3167.552002 988.695557,3178.460205 989.626404,3190.298340 
	C961.646484,3190.298340 934.541138,3190.298340 906.986938,3190.298340 
	C906.986938,3086.974365 906.986938,2984.172119 906.986938,2880.389160 
	C925.054749,2879.614014 942.524536,2878.594482 960.007507,2878.259766 
	C966.192932,2878.141602 972.794189,2878.674072 978.487061,2880.817871 
	C982.751648,2882.423828 986.000977,2886.952637 989.436035,2890.442139 
	C991.246094,2892.281250 992.317078,2894.825439 994.008972,2896.806152 
	C1009.246155,2914.642578 1024.552124,2932.420654 1039.815308,2950.234863 
	C1040.667725,2951.229980 1041.213013,2952.491943 1042.083496,2953.466797 
	C1052.153442,2964.744873 1062.218506,2976.028320 1072.418091,2987.188477 
	C1073.420776,2988.285400 1075.307251,2988.574951 1076.468628,2989.097412 
	C1087.075439,2977.368164 1097.536621,2965.998047 1107.763672,2954.420898 
	C1114.497070,2946.798340 1120.915283,2938.896484 1127.433105,2931.085205 
	C1131.856323,2925.784180 1136.100220,2920.330811 1140.613525,2915.109131 
	C1149.886108,2904.381592 1159.203125,2893.688721 1168.724976,2883.184326 
	C1170.088501,2881.680176 1172.645264,2880.676270 1174.735596,2880.509033 
	C1186.268555,2879.583008 1197.821167,2878.684814 1209.381836,2878.419434 
	C1214.568481,2878.300049 1220.200195,2881.232666 1224.895996,2879.995361 
	C1231.492432,2878.257080 1237.039429,2881.224609 1244.204834,2880.717529 
	C1244.204834,2955.180908 1244.204834,3029.090332 1244.205811,3104.000000 
z"/>
<path fill="#9F5A4A" opacity="1.000000" stroke="none" 
	d="
M2513.665527,3191.140137 
	C2507.725098,3191.127930 2502.717529,3190.972168 2497.727783,3191.201904 
	C2492.354248,3191.449463 2488.977783,3189.146240 2486.865234,3184.266357 
	C2479.513428,3167.283447 2472.374023,3150.196045 2464.501953,3133.454590 
	C2456.955811,3117.406006 2450.000244,3100.805664 2439.054932,3086.798828 
	C2431.705078,3077.393066 2423.480713,3067.591797 2409.220703,3067.898682 
	C2405.053467,3067.988281 2400.876953,3066.231934 2396.655762,3065.786377 
	C2394.114258,3065.518555 2391.478027,3066.147705 2387.646973,3066.481445 
	C2387.545166,3077.725342 2387.391602,3088.598389 2387.362061,3099.471924 
	C2387.325195,3113.037842 2387.995117,3126.468994 2385.847168,3140.142090 
	C2383.802246,3153.160645 2385.376221,3166.740234 2385.258789,3180.072021 
	C2385.171143,3190.012207 2384.343018,3190.543213 2374.337402,3191.062988 
	C2368.803955,3191.350342 2363.316406,3192.499756 2357.803711,3193.228271 
	C2356.493408,3193.401855 2354.992676,3193.903320 2353.873291,3193.478516 
	C2341.599609,3188.820801 2328.843750,3191.894043 2316.348877,3190.973877 
	C2313.123291,3190.736572 2309.901611,3190.451904 2306.404297,3190.166992 
	C2306.404297,3086.764648 2306.404297,2984.245117 2306.404297,2881.130127 
	C2312.967773,2880.811523 2318.683838,2877.408936 2324.935303,2880.387451 
	C2325.753906,2880.777344 2326.925781,2880.581055 2327.907227,2880.451660 
	C2364.680420,2875.594482 2401.635986,2879.375977 2438.482666,2878.090820 
	C2451.771240,2877.627441 2464.900146,2879.110352 2477.736084,2882.223145 
	C2494.385986,2886.261230 2508.812988,2894.337402 2521.143311,2906.621094 
	C2529.452881,2914.899170 2537.263916,2923.282715 2541.737305,2934.205322 
	C2543.829590,2939.313965 2545.653320,2944.646973 2546.686035,2950.052734 
	C2549.547852,2965.033203 2550.675049,2980.223877 2545.573242,2994.878174 
	C2542.352539,3004.129883 2537.837646,3012.917480 2531.243164,3020.553711 
	C2526.966797,3025.505615 2522.590332,3030.273682 2517.412598,3034.201904 
	C2512.173340,3038.176025 2506.623047,3041.739990 2501.305664,3045.416748 
	C2519.331055,3061.430664 2531.405029,3081.820557 2540.598145,3104.330811 
	C2545.582275,3116.534912 2551.925049,3128.180908 2557.574463,3140.116943 
	C2563.790039,3153.249023 2569.987061,3166.391113 2576.020508,3179.607178 
	C2577.368164,3182.559570 2578.000977,3185.838135 2579.369141,3190.287354 
	C2557.604980,3195.145752 2536.154053,3194.599365 2513.665527,3191.140137 
M2385.272705,2947.300781 
	C2386.365234,2965.649658 2387.457764,2983.998291 2388.610596,3003.357666 
	C2406.314941,3003.357666 2423.494629,3003.362305 2440.674561,3003.339355 
	C2441.321289,3003.338623 2441.997559,3003.149658 2442.609375,3002.915283 
	C2455.644775,2997.926270 2465.911133,2986.542480 2465.533936,2972.594482 
	C2465.158936,2958.730469 2455.398682,2946.176025 2441.323975,2942.243652 
	C2424.506348,2937.545410 2407.072266,2940.717285 2389.917725,2940.159180 
	C2386.488281,2940.047852 2385.456543,2942.418945 2385.272705,2947.300781 
z"/>
<path fill="#9F5B4A" opacity="1.000000" stroke="none" 
	d="
M1985.446533,2878.478516 
	C1993.697632,2879.304688 2001.948608,2880.131104 2010.976807,2881.035400 
	C2011.204346,2884.240723 2011.583618,2887.110352 2011.585693,2889.980469 
	C2011.626465,2946.625000 2011.658813,3003.269775 2011.601929,3059.914307 
	C2011.589355,3072.359131 2014.067871,3084.520752 2020.562866,3094.778564 
	C2025.196045,3102.095703 2032.442749,3108.369141 2039.755737,3113.268311 
	C2065.524658,3130.530518 2093.660645,3130.229492 2121.229980,3119.515137 
	C2140.169189,3112.154541 2152.820557,3096.853027 2158.089600,3076.739014 
	C2159.819824,3070.134521 2160.267822,3063.039307 2160.288574,3056.165771 
	C2160.456787,3000.521240 2160.375000,2944.875977 2160.409424,2889.230957 
	C2160.411133,2886.659668 2160.797363,2884.088379 2160.974609,2881.887451 
	C2162.203613,2881.292236 2162.770508,2880.791504 2163.357666,2880.766113 
	C2184.215576,2879.863281 2205.070801,2878.815918 2225.938721,2878.276611 
	C2231.027344,2878.145508 2236.159180,2879.702881 2242.237549,2880.631348 
	C2242.237549,2885.206055 2242.236328,2888.793457 2242.237793,2892.380859 
	C2242.264160,2952.024414 2242.334717,3011.667969 2242.295166,3071.311523 
	C2242.281006,3092.843994 2236.730713,3113.204590 2226.885498,3132.113525 
	C2222.865723,3139.834229 2216.299805,3146.326416 2210.400635,3152.938721 
	C2206.255859,3157.584961 2201.603271,3161.922852 2196.616943,3165.648193 
	C2178.089600,3179.489990 2157.306152,3188.374512 2134.501953,3192.221436 
	C2125.744629,3193.698730 2116.866699,3194.919434 2108.007812,3195.228516 
	C2093.698242,3195.728760 2079.308105,3196.127197 2065.047363,3195.163086 
	C2052.302734,3194.301270 2039.657593,3191.712158 2027.021973,3189.569824 
	C2013.545776,3187.284912 2001.800659,3180.270020 1989.403931,3175.077393 
	C1985.829834,3173.580078 1982.447510,3171.328857 1979.415894,3168.880127 
	C1958.502563,3151.990723 1941.501953,3132.093994 1934.787598,3105.416748 
	C1931.988525,3094.295654 1930.018433,3082.643799 1929.930542,3071.215820 
	C1929.466553,3010.909424 1929.707642,2950.597656 1929.744141,2890.287598 
	C1929.750732,2879.434570 1930.461914,2878.804932 1943.175781,2878.629883 
	C1958.246460,2878.852051 1971.846558,2878.665283 1985.446533,2878.478516 
z"/>
<path fill="#9F5B4A" opacity="1.000000" stroke="none" 
	d="
M1348.928223,3002.883789 
	C1353.615356,2991.871582 1357.999390,2981.574219 1362.228027,2971.213135 
	C1368.932739,2954.785156 1375.574341,2938.330811 1382.162720,2921.855957 
	C1386.177490,2911.816650 1390.686523,2901.912354 1393.808838,2891.594971 
	C1397.569946,2879.166504 1407.842529,2879.349854 1417.337280,2878.202393 
	C1423.572998,2877.448730 1429.984619,2877.887207 1436.303833,2878.135986 
	C1453.514160,2878.813965 1470.714722,2879.748291 1487.925903,2880.401367 
	C1491.447021,2880.534912 1493.262573,2882.168945 1494.734009,2885.125732 
	C1499.287842,2894.276855 1504.249146,2903.229248 1508.657471,2912.447754 
	C1514.619019,2924.914551 1520.424194,2937.466064 1525.915649,2950.145752 
	C1533.510742,2967.682617 1540.720337,2985.385742 1548.161621,3002.989502 
	C1550.580322,3008.711182 1553.190186,3014.352539 1555.743774,3020.016602 
	C1561.841431,3033.541992 1568.048584,3047.018799 1574.038818,3060.591309 
	C1579.350708,3072.626709 1584.260254,3084.841309 1589.656860,3096.837402 
	C1595.718750,3110.312500 1602.379517,3123.521240 1608.319458,3137.048096 
	C1615.082397,3152.448730 1621.403931,3168.045166 1627.712646,3183.639648 
	C1628.367310,3185.258057 1627.633057,3187.438721 1627.516602,3189.925781 
	C1608.829102,3191.815918 1590.885620,3196.490234 1572.201782,3191.633789 
	C1565.312744,3189.843018 1557.620850,3190.883057 1550.306641,3191.073975 
	C1545.331421,3191.203613 1542.274414,3189.558350 1540.353760,3184.767334 
	C1535.810913,3173.435547 1530.883301,3162.257080 1526.078369,3151.030762 
	C1523.234741,3144.386719 1520.328125,3137.769775 1516.975342,3130.047852 
	C1514.199341,3130.047852 1510.955811,3130.048584 1507.712280,3130.047607 
	C1470.068359,3130.035400 1432.422852,3130.194580 1394.781738,3129.864014 
	C1387.390747,3129.799072 1383.710205,3131.778320 1381.112305,3139.237793 
	C1375.628052,3154.984619 1368.459351,3170.136963 1362.502930,3185.732422 
	C1361.012695,3189.634033 1358.980713,3190.838379 1355.311523,3191.058838 
	C1342.137939,3191.850830 1328.956909,3193.610352 1315.806152,3193.387939 
	C1302.405029,3193.161377 1289.036377,3191.028809 1275.065063,3189.673584 
	C1277.356445,3180.965088 1278.983521,3172.348389 1284.380981,3164.924805 
	C1286.071533,3162.599609 1286.628296,3159.449219 1287.699585,3156.674805 
	C1294.709106,3138.521973 1301.438599,3120.254639 1308.804077,3102.247314 
	C1316.006348,3084.638428 1324.070557,3067.395264 1329.999268,3049.258301 
	C1332.029297,3043.047852 1335.587524,3037.354248 1338.077271,3031.272705 
	C1340.816772,3024.581299 1343.113037,3017.708496 1345.637817,3010.928223 
	C1346.558228,3008.456055 1347.579956,3006.021240 1348.928223,3002.883789 
M1414.572021,3047.930420 
	C1412.182983,3055.695801 1409.794067,3063.461426 1407.402344,3071.235840 
	C1419.208252,3073.200195 1484.533691,3072.624512 1491.510620,3070.509521 
	C1487.188721,3058.116211 1451.785400,2969.265625 1446.585693,2965.894043 
	C1446.082642,2967.931152 1445.817139,2969.860840 1445.136963,2971.631104 
	C1436.765381,2993.416748 1428.371216,3015.193604 1419.875610,3036.930908 
	C1418.587524,3040.226318 1416.755371,3043.309082 1414.572021,3047.930420 
z"/>
<path fill="#9F5B4A" opacity="1.000000" stroke="none" 
	d="
M1894.274048,2892.385498 
	C1880.672852,2911.391602 1867.161743,2929.621338 1853.916870,2948.042236 
	C1844.311401,2961.401611 1835.850708,2975.669922 1825.398560,2988.307861 
	C1817.017944,2998.441650 1809.609253,3009.245605 1801.392944,3019.459717 
	C1796.671021,3025.330322 1792.572998,3031.715576 1787.695190,3037.444092 
	C1783.774414,3042.048828 1782.744873,3047.041992 1782.222412,3052.918457 
	C1778.385132,3096.086182 1780.843750,3139.334717 1780.085449,3182.536133 
	C1780.045288,3184.828857 1779.659912,3187.114990 1779.293213,3190.852295 
	C1752.308838,3191.025391 1725.525635,3191.248535 1697.787720,3190.584717 
	C1697.787720,3185.465088 1697.790161,3181.513184 1697.787354,3177.561035 
	C1697.759888,3138.245850 1697.086182,3098.914551 1698.075928,3059.625000 
	C1698.394409,3046.981689 1692.628296,3038.420410 1686.041870,3029.488037 
	C1678.232544,3018.897217 1670.024170,3008.601318 1662.117798,2998.081055 
	C1656.815063,2991.025146 1651.826782,2983.733154 1646.533691,2976.669922 
	C1640.650879,2968.819580 1634.373779,2961.258789 1628.637207,2953.305908 
	C1616.674561,2936.722168 1605.007568,2919.925293 1593.094604,2903.305176 
	C1590.415771,2899.568115 1586.976562,2896.370605 1584.352783,2892.600586 
	C1582.339600,2889.708008 1581.058228,2886.305908 1578.722534,2881.689941 
	C1611.702271,2879.078125 1643.066406,2875.087646 1676.092773,2881.117920 
	C1696.097290,2909.937256 1716.830566,2939.806641 1738.143921,2970.511475 
	C1739.962646,2969.227539 1742.199829,2968.380371 1743.299927,2966.760742 
	C1758.109863,2944.959473 1775.061401,2924.646240 1788.230469,2901.691406 
	C1791.775879,2895.511230 1796.519897,2890.019531 1800.696411,2884.199463 
	C1802.772827,2881.305908 1805.442261,2880.580811 1809.080811,2880.082031 
	C1833.161987,2876.781494 1857.336548,2878.600342 1881.461792,2878.129150 
	C1885.124878,2878.057617 1888.791138,2878.174805 1892.455811,2878.164307 
	C1896.371826,2878.153076 1899.683838,2879.100830 1901.317017,2883.882080 
	C1899.150391,2886.355957 1896.814331,2889.023438 1894.274048,2892.385498 
z"/>
<path fill="#9F5A4A" opacity="1.000000" stroke="none" 
	d="
M2129.999023,1085.174072 
	C2087.036865,1085.186401 2045.074707,1085.199097 2003.112549,1085.210449 
	C2000.781372,1085.211182 1998.445435,1085.295166 1996.119751,1085.180542 
	C1988.575439,1084.808838 1987.265991,1083.951782 1987.747314,1076.208740 
	C1989.052368,1055.216553 1991.503296,1034.313843 1999.267822,1014.567139 
	C2009.665527,988.123596 2026.015991,965.555237 2046.345215,945.915833 
	C2066.573242,926.374146 2090.583740,913.222046 2117.045410,903.726807 
	C2134.180176,897.578430 2151.402588,894.870667 2169.387939,895.846191 
	C2171.633789,895.968140 2173.861572,896.428894 2176.782959,896.825745 
	C2176.978027,900.421570 2177.306152,903.673645 2177.307861,906.925842 
	C2177.336914,962.542358 2177.341309,1018.158875 2177.310547,1073.775391 
	C2177.304443,1084.587646 2176.986084,1084.911377 2165.967285,1085.043213 
	C2154.312500,1085.182495 2142.655273,1085.138306 2129.999023,1085.174072 
z"/>
<path fill="#9D5A4A" opacity="1.000000" stroke="none" 
	d="
M1040.169434,3345.787598 
	C1048.754883,3350.834961 1051.166870,3359.323975 1053.243530,3367.043701 
	C1056.138306,3377.804199 1055.453125,3388.973389 1049.429932,3399.009521 
	C1046.767578,3403.445557 1044.926147,3408.657959 1039.131104,3410.507568 
	C1037.823975,3410.924805 1037.014038,3412.898926 1035.607422,3414.601562 
	C1041.085571,3417.963379 1046.370728,3420.824463 1051.236572,3424.276367 
	C1060.062622,3430.537598 1064.294800,3439.625000 1066.317993,3450.024902 
	C1068.160889,3459.498291 1068.976074,3468.688477 1066.863281,3478.466797 
	C1062.827515,3497.144531 1051.737915,3508.978271 1034.295532,3515.072021 
	C1025.039917,3518.305664 1015.590515,3520.500977 1005.367554,3520.279541 
	C975.724915,3519.635986 946.060425,3520.009766 916.404663,3519.941406 
	C913.487061,3519.934814 910.570129,3519.634521 907.012390,3519.434570 
	C907.012390,3456.115234 907.012390,3393.336426 907.012390,3330.723389 
	C921.626038,3326.170166 936.270874,3327.294189 950.783630,3327.525391 
	C969.005737,3327.815430 987.317627,3327.796875 1005.400024,3329.712158 
	C1018.043457,3331.051514 1030.241577,3335.679443 1040.169434,3345.787598 
M958.319031,3476.038574 
	C958.224976,3480.577148 961.094971,3481.487549 964.845093,3481.475342 
	C973.147522,3481.448242 981.451233,3481.574707 989.752014,3481.460449 
	C993.031555,3481.415527 996.405884,3481.303223 999.560913,3480.515869 
	C1008.364258,3478.319092 1014.456116,3470.556396 1014.502075,3462.047363 
	C1014.546021,3453.914062 1009.095703,3446.717041 1000.473999,3444.145996 
	C986.871094,3440.090088 973.115540,3442.632080 958.270935,3442.551758 
	C958.270935,3453.780273 958.270935,3463.990967 958.319031,3476.038574 
M985.589905,3403.517090 
	C987.753113,3402.750977 990.324890,3402.487793 992.003662,3401.124756 
	C997.204651,3396.902100 1002.427002,3391.913086 1001.458801,3384.690430 
	C1000.443970,3377.119141 995.882263,3370.345703 988.188049,3368.911621 
	C978.599426,3367.124268 968.616943,3367.589600 958.252136,3368.966797 
	C958.681458,3380.914062 957.658997,3391.740723 959.024475,3403.540039 
	C968.003967,3403.540039 975.928162,3403.540039 985.589905,3403.517090 
z"/>
<path fill="#9D5A4A" opacity="1.000000" stroke="none" 
	d="
M1961.981689,3520.024902 
	C1935.779785,3520.026611 1910.573853,3520.026611 1884.713379,3520.026611 
	C1884.713379,3456.293945 1884.713379,3393.855957 1884.713379,3330.602783 
	C1894.914307,3329.503662 1904.964478,3327.845459 1915.062134,3327.470703 
	C1929.359131,3326.939941 1943.737549,3326.628418 1957.997437,3327.537842 
	C1979.583374,3328.914307 2001.520874,3329.533936 2021.620117,3338.901611 
	C2028.393921,3342.058838 2034.660034,3346.685059 2040.457397,3351.486328 
	C2058.215576,3366.192871 2068.598633,3384.667969 2072.075928,3408.024658 
	C2074.633301,3425.203369 2073.908691,3441.770752 2069.317383,3457.924072 
	C2063.754150,3477.497314 2051.434082,3491.822754 2033.759644,3503.309814 
	C2018.961304,3512.927490 2002.685669,3515.133057 1986.836060,3519.626465 
	C1979.440308,3521.723145 1970.964233,3520.009521 1961.981689,3520.024902 
M1935.583374,3440.597656 
	C1935.339722,3453.932129 1935.096191,3467.266846 1934.836548,3481.474609 
	C1943.270386,3481.474609 1951.234253,3481.113037 1959.152588,3481.559326 
	C1970.962891,3482.224854 1982.258301,3480.469482 1992.483887,3474.574707 
	C2002.606079,3468.739014 2010.974731,3460.827393 2015.663208,3449.818115 
	C2023.265137,3431.967285 2019.519775,3414.182617 2014.789429,3396.497559 
	C2014.296997,3394.656250 2013.104736,3392.811523 2011.765991,3391.422852 
	C2007.871216,3387.382324 2004.224121,3382.802979 1999.577026,3379.861084 
	C1993.309814,3375.893799 1986.419434,3372.627441 1979.404541,3370.186523 
	C1966.873535,3365.825928 1953.721313,3368.904297 1940.861572,3368.195068 
	C1938.682495,3368.074707 1936.453735,3368.853271 1932.847168,3369.447510 
	C1933.587891,3383.384766 1934.306885,3396.915283 1934.514893,3411.661865 
	C1934.741577,3420.539307 1934.968140,3429.416992 1935.583374,3440.597656 
z"/>
<path fill="#9D5A4A" opacity="1.000000" stroke="none" 
	d="
M2428.332031,3474.000000 
	C2428.332031,3425.779541 2428.332031,3378.558838 2428.332031,3330.691162 
	C2437.437256,3329.521729 2445.822266,3327.772705 2454.254639,3327.501953 
	C2471.549316,3326.946777 2488.869141,3327.188477 2506.178711,3327.094238 
	C2519.831787,3327.020020 2533.439209,3329.139648 2545.589844,3334.740234 
	C2562.724365,3342.637939 2573.970215,3355.969971 2578.010986,3375.544434 
	C2581.568359,3392.777344 2576.400146,3406.582764 2565.727051,3419.095703 
	C2561.780518,3423.722900 2556.588623,3427.288330 2551.429199,3431.807129 
	C2563.458740,3442.845215 2570.208984,3456.805908 2576.852539,3470.747314 
	C2583.933594,3485.606689 2590.503662,3500.709961 2597.212158,3515.744385 
	C2597.562012,3516.528809 2597.123535,3517.665039 2596.999023,3519.359863 
	C2578.477051,3519.359863 2560.024658,3519.359863 2541.202393,3519.359863 
	C2534.673584,3505.137695 2528.420898,3490.591553 2521.347656,3476.456299 
	C2517.097900,3467.964111 2512.146729,3459.674072 2506.423340,3452.116943 
	C2502.164551,3446.493408 2495.418213,3444.025146 2488.048584,3444.090332 
	C2483.308350,3444.132324 2480.251221,3445.925049 2480.351318,3451.042969 
	C2480.688965,3468.282715 2481.287354,3485.519531 2481.426270,3502.760010 
	C2481.468018,3507.943359 2480.336182,3513.135986 2479.751465,3518.241455 
	C2471.986816,3520.481689 2438.920410,3520.721924 2428.332031,3518.401855 
	C2428.332031,3504.125488 2428.332031,3489.562744 2428.332031,3474.000000 
M2484.123047,3405.248047 
	C2491.756348,3405.327881 2499.396973,3405.649902 2507.021484,3405.426025 
	C2516.790039,3405.139648 2524.896484,3397.414307 2525.665527,3388.167725 
	C2526.329346,3380.184814 2518.914307,3369.531006 2510.541504,3368.584229 
	C2500.826416,3367.485840 2490.903564,3367.482178 2480.647217,3368.937012 
	C2480.647217,3380.689453 2480.611816,3391.570557 2480.722656,3402.450439 
	C2480.730469,3403.220215 2481.812988,3403.979248 2484.123047,3405.248047 
z"/>
<path fill="#9D594A" opacity="1.000000" stroke="none" 
	d="
M1218.171387,3362.006836 
	C1218.163452,3374.335938 1217.885376,3385.674072 1218.210449,3396.995117 
	C1218.704956,3414.218994 1219.121460,3431.471436 1220.530273,3448.633057 
	C1221.441406,3459.733887 1229.142944,3466.895752 1238.246338,3472.453125 
	C1247.188232,3477.912109 1256.754028,3481.220703 1267.354248,3479.369141 
	C1291.562256,3475.139648 1305.804565,3464.613281 1306.186279,3440.105469 
	C1306.699951,3407.122314 1306.276367,3374.124268 1306.255615,3341.132812 
	C1306.253540,3337.820312 1306.255493,3334.507568 1306.255493,3329.720215 
	C1323.557251,3329.680908 1340.341675,3329.305420 1357.719604,3330.118408 
	C1357.929443,3333.562744 1358.255127,3336.457520 1358.259399,3339.352539 
	C1358.315308,3377.009521 1358.898682,3414.678711 1358.104126,3452.318359 
	C1357.710571,3470.958008 1351.016113,3487.527832 1335.842773,3500.103516 
	C1318.062012,3514.840088 1298.043579,3522.376953 1274.991943,3522.104736 
	C1265.996826,3521.998535 1256.979736,3522.500488 1248.006104,3522.053467 
	C1223.336792,3520.824951 1201.369751,3512.368652 1184.588135,3494.014893 
	C1174.199707,3482.653320 1168.719971,3468.048096 1168.564941,3452.539062 
	C1168.174927,3413.554932 1168.583862,3374.562988 1168.690674,3335.573975 
	C1168.694336,3334.256836 1168.893921,3332.940430 1169.044067,3331.114746 
	C1185.270142,3326.949219 1201.407837,3328.284912 1218.171387,3330.773193 
	C1218.171387,3341.057861 1218.171387,3351.033203 1218.171387,3362.006836 
z"/>
<path fill="#9E594A" opacity="1.000000" stroke="none" 
	d="
M2269.967285,3327.446777 
	C2283.947510,3327.420898 2296.934814,3327.287109 2309.920166,3327.404297 
	C2320.175049,3327.496826 2320.320312,3327.762695 2320.359619,3338.390137 
	C2320.385498,3345.383301 2320.441406,3352.379395 2320.281494,3359.369629 
	C2320.103760,3367.137207 2319.293945,3368.056396 2311.669678,3368.140869 
	C2298.350342,3368.288818 2285.028320,3368.168457 2271.707275,3368.162842 
	C2259.718506,3368.157715 2247.729736,3368.136719 2235.740967,3368.175781 
	C2234.134766,3368.180908 2232.529785,3368.495361 2230.102295,3368.754395 
	C2228.597168,3379.838867 2229.247314,3390.515137 2229.793213,3401.564453 
	C2254.916748,3401.564453 2278.829102,3401.493896 2302.740234,3401.641602 
	C2306.289062,3401.663330 2309.853027,3402.609131 2313.371338,3403.318604 
	C2317.386719,3404.127930 2318.686768,3406.951172 2318.296143,3410.739990 
	C2317.281738,3420.578857 2316.225098,3430.413574 2315.036621,3441.658691 
	C2306.598389,3442.841553 2297.358887,3441.936279 2288.207031,3442.094727 
	C2278.552490,3442.262207 2268.892578,3442.119141 2259.234863,3442.115967 
	C2249.949463,3442.113037 2240.663818,3442.115234 2231.648682,3442.115234 
	C2228.837891,3449.552734 2228.349121,3468.186768 2230.647217,3481.219727 
	C2260.500732,3481.802002 2290.655029,3481.124512 2321.838623,3481.599609 
	C2322.699951,3494.251221 2322.295166,3506.338135 2321.957764,3519.880127 
	C2274.638672,3520.267822 2227.909912,3519.876221 2180.636719,3520.057373 
	C2178.319336,3497.097656 2175.262939,3475.224854 2179.397217,3453.130615 
	C2179.941650,3450.221436 2179.864014,3447.155762 2179.767090,3444.172607 
	C2179.099854,3423.628906 2177.715332,3403.084229 2177.825195,3382.546631 
	C2177.916992,3365.370850 2179.726318,3348.204346 2180.821533,3330.271484 
	C2182.778809,3329.558105 2185.213867,3327.875000 2187.609619,3327.928955 
	C2201.087891,3328.232666 2214.526611,3326.941162 2228.014160,3327.355225 
	C2241.655273,3327.773926 2255.319580,3327.447266 2269.967285,3327.446777 
z"/>
<path fill="#9D594A" opacity="1.000000" stroke="none" 
	d="
M1691.309814,3453.546143 
	C1690.933105,3458.102051 1690.492798,3462.654053 1690.198120,3467.215332 
	C1689.925049,3471.438477 1689.807861,3475.671875 1689.562500,3481.260254 
	C1721.277832,3481.260254 1752.067505,3481.260254 1783.394531,3481.260254 
	C1783.394531,3494.441162 1783.394531,3506.302246 1783.394531,3518.122559 
	C1776.099854,3520.492188 1652.404297,3520.986572 1640.595703,3518.603760 
	C1640.595703,3456.290283 1640.595703,3393.839355 1640.595703,3331.417236 
	C1647.808594,3329.264404 1675.981201,3328.798584 1687.981934,3330.602783 
	C1688.357056,3331.143555 1689.035767,3331.674316 1689.057373,3332.230713 
	C1689.866943,3353.079590 1690.747803,3373.926758 1691.323120,3394.782715 
	C1691.662598,3407.091797 1691.505005,3419.414551 1691.153564,3433.251465 
	C1690.927246,3441.030029 1691.118530,3447.288086 1691.309814,3453.546143 
z"/>
<path fill="#9D5A4A" opacity="1.000000" stroke="none" 
	d="
M1522.564453,3435.570801 
	C1522.404419,3448.213623 1521.495117,3460.909912 1522.390137,3473.477539 
	C1522.860474,3480.083496 1526.691284,3486.377441 1525.815063,3493.493896 
	C1525.298584,3497.687988 1525.651245,3501.673828 1523.177124,3505.818359 
	C1521.163940,3509.190918 1521.798218,3514.143555 1521.068359,3519.894287 
	C1513.754150,3519.926025 1506.230469,3519.971680 1498.706787,3519.987793 
	C1491.079590,3520.004150 1483.452271,3519.991455 1476.091797,3519.991455 
	C1473.448486,3512.132080 1472.485352,3346.950439 1474.824951,3330.519531 
	C1490.198120,3328.709229 1505.645874,3323.986816 1521.964844,3331.105713 
	C1521.964844,3336.759766 1521.856934,3342.704834 1522.000000,3348.643799 
	C1522.109253,3353.179443 1521.184082,3357.823730 1524.753052,3361.906494 
	C1526.009155,3363.343750 1525.723633,3366.343750 1525.722778,3368.630127 
	C1525.716431,3384.946045 1525.601440,3401.261963 1524.815308,3418.799805 
	C1523.594604,3425.204834 1523.079468,3430.387695 1522.564453,3435.570801 
z"/>
<path fill="#9D5A4A" opacity="1.000000" stroke="none" 
	d="
M1984.581177,2878.328857 
	C1971.846558,2878.665283 1958.246460,2878.852051 1944.086670,2878.748535 
	C1956.923218,2878.365234 1970.319580,2878.272217 1984.581177,2878.328857 
z"/>
<path fill="#9E594A" opacity="1.000000" stroke="none" 
	d="
M1523.248779,3435.394287 
	C1523.079468,3430.387695 1523.594604,3425.204834 1524.623047,3419.823975 
	C1524.735229,3424.823486 1524.334106,3430.020508 1523.248779,3435.394287 
z"/>
<path fill="#9E594A" opacity="1.000000" stroke="none" 
	d="
M1691.475708,3452.947754 
	C1691.118530,3447.288086 1690.927246,3441.030029 1690.980957,3434.290039 
	C1691.364502,3439.988525 1691.503052,3446.168945 1691.475708,3452.947754 
z"/>
<path fill="#030101" opacity="1.000000" stroke="none" 
	d="
M2385.307373,2946.351074 
	C2385.456543,2942.418945 2386.488281,2940.047852 2389.917725,2940.159180 
	C2407.072266,2940.717285 2424.506348,2937.545410 2441.323975,2942.243652 
	C2455.398682,2946.176025 2465.158936,2958.730469 2465.533936,2972.594482 
	C2465.911133,2986.542480 2455.644775,2997.926270 2442.609375,3002.915283 
	C2441.997559,3003.149658 2441.321289,3003.338623 2440.674561,3003.339355 
	C2423.494629,3003.362305 2406.314941,3003.357666 2388.610596,3003.357666 
	C2387.457764,2983.998291 2386.365234,2965.649658 2385.307373,2946.351074 
z"/>
<path fill="#030101" opacity="1.000000" stroke="none" 
	d="
M1414.873535,3047.210449 
	C1416.755371,3043.309082 1418.587524,3040.226318 1419.875610,3036.930908 
	C1428.371216,3015.193604 1436.765381,2993.416748 1445.136963,2971.631104 
	C1445.817139,2969.860840 1446.082642,2967.931152 1446.585693,2965.894043 
	C1451.785400,2969.265625 1487.188721,3058.116211 1491.510620,3070.509521 
	C1484.533691,3072.624512 1419.208252,3073.200195 1407.402344,3071.235840 
	C1409.794067,3063.461426 1412.182983,3055.695801 1414.873535,3047.210449 
z"/>
<path fill="#030101" opacity="1.000000" stroke="none" 
	d="
M958.294983,3475.120117 
	C958.270935,3463.990967 958.270935,3453.780273 958.270935,3442.551758 
	C973.115540,3442.632080 986.871094,3440.090088 1000.473999,3444.145996 
	C1009.095703,3446.717041 1014.546021,3453.914062 1014.502075,3462.047363 
	C1014.456116,3470.556396 1008.364258,3478.319092 999.560913,3480.515869 
	C996.405884,3481.303223 993.031555,3481.415527 989.752014,3481.460449 
	C981.451233,3481.574707 973.147522,3481.448242 964.845093,3481.475342 
	C961.094971,3481.487549 958.224976,3480.577148 958.294983,3475.120117 
z"/>
<path fill="#030101" opacity="1.000000" stroke="none" 
	d="
M984.721191,3403.528564 
	C975.928162,3403.540039 968.003967,3403.540039 959.024475,3403.540039 
	C957.658997,3391.740723 958.681458,3380.914062 958.252136,3368.966797 
	C968.616943,3367.589600 978.599426,3367.124268 988.188049,3368.911621 
	C995.882263,3370.345703 1000.443970,3377.119141 1001.458801,3384.690430 
	C1002.427002,3391.913086 997.204651,3396.902100 992.003662,3401.124756 
	C990.324890,3402.487793 987.753113,3402.750977 984.721191,3403.528564 
z"/>
<path fill="#030101" opacity="1.000000" stroke="none" 
	d="
M1935.026001,3410.445557 
	C1934.306885,3396.915283 1933.587891,3383.384766 1932.847168,3369.447510 
	C1936.453735,3368.853271 1938.682495,3368.074707 1940.861572,3368.195068 
	C1953.721313,3368.904297 1966.873535,3365.825928 1979.404541,3370.186523 
	C1986.419434,3372.627441 1993.309814,3375.893799 1999.577026,3379.861084 
	C2004.224121,3382.802979 2007.871216,3387.382324 2011.765991,3391.422852 
	C2013.104736,3392.811523 2014.296997,3394.656250 2014.789429,3396.497559 
	C2019.519775,3414.182617 2023.265137,3431.967285 2015.663208,3449.818115 
	C2010.974731,3460.827393 2002.606079,3468.739014 1992.483887,3474.574707 
	C1982.258301,3480.469482 1970.962891,3482.224854 1959.152588,3481.559326 
	C1951.234253,3481.113037 1943.270386,3481.474609 1934.836548,3481.474609 
	C1935.096191,3467.266846 1935.339722,3453.932129 1935.594238,3438.987305 
	C1935.412109,3428.399658 1935.218994,3419.422607 1935.026001,3410.445557 
z"/>
<path fill="#9E594A" opacity="1.000000" stroke="none" 
	d="
M1934.770508,3411.053711 
	C1935.218994,3419.422607 1935.412109,3428.399658 1935.400024,3437.835449 
	C1934.968140,3429.416992 1934.741577,3420.539307 1934.770508,3411.053711 
z"/>
<path fill="#030101" opacity="1.000000" stroke="none" 
	d="
M2483.259521,3404.995605 
	C2481.812988,3403.979248 2480.730469,3403.220215 2480.722656,3402.450439 
	C2480.611816,3391.570557 2480.647217,3380.689453 2480.647217,3368.937012 
	C2490.903564,3367.482178 2500.826416,3367.485840 2510.541504,3368.584229 
	C2518.914307,3369.531006 2526.329346,3380.184814 2525.665527,3388.167725 
	C2524.896484,3397.414307 2516.790039,3405.139648 2507.021484,3405.426025 
	C2499.396973,3405.649902 2491.756348,3405.327881 2483.259521,3404.995605 
z"/>
</svg>